<mxfile host="app.diagrams.net" modified="2024-05-02T14:10:28.161Z" agent="Mozilla/5.0 (Windows NT 10.0; Win64; x64) AppleWebKit/537.36 (KHTML, like Gecko) Chrome/124.0.0.0 Safari/537.36" etag="-iCmItP_VKDRkE9KYeDL" version="24.3.1" type="device">
  <diagram name="Page-1" id="F68rebBAYOJxjV6OVDy2">
    <mxGraphModel dx="1167" dy="619" grid="1" gridSize="10" guides="1" tooltips="1" connect="1" arrows="1" fold="1" page="1" pageScale="1" pageWidth="900" pageHeight="1600" math="0" shadow="0">
      <root>
        <mxCell id="0" />
        <mxCell id="1" parent="0" />
        <mxCell id="x4-7woMXGUGNkdYmgw8k-1" value="Nhập vào một số nguyên n. Trả lại bình phương của số nguyên n" style="text;html=1;align=center;verticalAlign=middle;resizable=0;points=[];autosize=1;strokeColor=none;fillColor=none;" vertex="1" parent="1">
          <mxGeometry x="265" y="40" width="370" height="30" as="geometry" />
        </mxCell>
        <mxCell id="x4-7woMXGUGNkdYmgw8k-7" style="edgeStyle=orthogonalEdgeStyle;rounded=0;orthogonalLoop=1;jettySize=auto;html=1;exitX=0.5;exitY=1;exitDx=0;exitDy=0;entryX=0.5;entryY=0;entryDx=0;entryDy=0;" edge="1" parent="1" source="x4-7woMXGUGNkdYmgw8k-2" target="x4-7woMXGUGNkdYmgw8k-3">
          <mxGeometry relative="1" as="geometry" />
        </mxCell>
        <mxCell id="x4-7woMXGUGNkdYmgw8k-2" value="START" style="ellipse;whiteSpace=wrap;html=1;" vertex="1" parent="1">
          <mxGeometry x="390" y="90" width="120" height="80" as="geometry" />
        </mxCell>
        <mxCell id="x4-7woMXGUGNkdYmgw8k-8" style="edgeStyle=orthogonalEdgeStyle;rounded=0;orthogonalLoop=1;jettySize=auto;html=1;exitX=0.5;exitY=1;exitDx=0;exitDy=0;" edge="1" parent="1" source="x4-7woMXGUGNkdYmgw8k-3" target="x4-7woMXGUGNkdYmgw8k-4">
          <mxGeometry relative="1" as="geometry" />
        </mxCell>
        <mxCell id="x4-7woMXGUGNkdYmgw8k-3" value="INPUT n" style="shape=parallelogram;perimeter=parallelogramPerimeter;whiteSpace=wrap;html=1;fixedSize=1;" vertex="1" parent="1">
          <mxGeometry x="390" y="200" width="120" height="60" as="geometry" />
        </mxCell>
        <mxCell id="x4-7woMXGUGNkdYmgw8k-9" style="edgeStyle=orthogonalEdgeStyle;rounded=0;orthogonalLoop=1;jettySize=auto;html=1;exitX=0.5;exitY=1;exitDx=0;exitDy=0;" edge="1" parent="1" source="x4-7woMXGUGNkdYmgw8k-4" target="x4-7woMXGUGNkdYmgw8k-5">
          <mxGeometry relative="1" as="geometry" />
        </mxCell>
        <mxCell id="x4-7woMXGUGNkdYmgw8k-4" value="RESULT = n*n" style="rounded=0;whiteSpace=wrap;html=1;" vertex="1" parent="1">
          <mxGeometry x="390" y="320" width="120" height="60" as="geometry" />
        </mxCell>
        <mxCell id="x4-7woMXGUGNkdYmgw8k-11" style="edgeStyle=orthogonalEdgeStyle;rounded=0;orthogonalLoop=1;jettySize=auto;html=1;entryX=0.5;entryY=0;entryDx=0;entryDy=0;" edge="1" parent="1" source="x4-7woMXGUGNkdYmgw8k-5" target="x4-7woMXGUGNkdYmgw8k-6">
          <mxGeometry relative="1" as="geometry" />
        </mxCell>
        <mxCell id="x4-7woMXGUGNkdYmgw8k-5" value="OUTPUT RESULT" style="shape=parallelogram;perimeter=parallelogramPerimeter;whiteSpace=wrap;html=1;fixedSize=1;" vertex="1" parent="1">
          <mxGeometry x="375" y="440" width="150" height="60" as="geometry" />
        </mxCell>
        <mxCell id="x4-7woMXGUGNkdYmgw8k-6" value="END" style="ellipse;whiteSpace=wrap;html=1;" vertex="1" parent="1">
          <mxGeometry x="390" y="540" width="120" height="80" as="geometry" />
        </mxCell>
        <mxCell id="x4-7woMXGUGNkdYmgw8k-12" value="Nhập vào chiều dài và chiều rộng. Trả lại diện tích của hình chữ nhật đó" style="text;html=1;align=center;verticalAlign=middle;resizable=0;points=[];autosize=1;strokeColor=none;fillColor=none;" vertex="1" parent="1">
          <mxGeometry x="246" y="728" width="410" height="30" as="geometry" />
        </mxCell>
        <mxCell id="x4-7woMXGUGNkdYmgw8k-18" style="edgeStyle=orthogonalEdgeStyle;rounded=0;orthogonalLoop=1;jettySize=auto;html=1;entryX=0.5;entryY=0;entryDx=0;entryDy=0;" edge="1" parent="1" source="x4-7woMXGUGNkdYmgw8k-13" target="x4-7woMXGUGNkdYmgw8k-14">
          <mxGeometry relative="1" as="geometry" />
        </mxCell>
        <mxCell id="x4-7woMXGUGNkdYmgw8k-13" value="START" style="ellipse;whiteSpace=wrap;html=1;" vertex="1" parent="1">
          <mxGeometry x="390" y="790" width="120" height="80" as="geometry" />
        </mxCell>
        <mxCell id="x4-7woMXGUGNkdYmgw8k-19" style="edgeStyle=orthogonalEdgeStyle;rounded=0;orthogonalLoop=1;jettySize=auto;html=1;entryX=0.5;entryY=0;entryDx=0;entryDy=0;" edge="1" parent="1" source="x4-7woMXGUGNkdYmgw8k-14" target="x4-7woMXGUGNkdYmgw8k-15">
          <mxGeometry relative="1" as="geometry">
            <Array as="points">
              <mxPoint x="743" y="930" />
            </Array>
          </mxGeometry>
        </mxCell>
        <mxCell id="x4-7woMXGUGNkdYmgw8k-23" style="edgeStyle=orthogonalEdgeStyle;rounded=0;orthogonalLoop=1;jettySize=auto;html=1;exitX=0;exitY=0.5;exitDx=0;exitDy=0;entryX=0.5;entryY=0;entryDx=0;entryDy=0;" edge="1" parent="1" source="x4-7woMXGUGNkdYmgw8k-14" target="x4-7woMXGUGNkdYmgw8k-22">
          <mxGeometry relative="1" as="geometry">
            <Array as="points">
              <mxPoint x="345" y="940" />
              <mxPoint x="180" y="940" />
            </Array>
          </mxGeometry>
        </mxCell>
        <mxCell id="x4-7woMXGUGNkdYmgw8k-14" value="INPUT chieu_dai, chieu_rong" style="shape=parallelogram;perimeter=parallelogramPerimeter;whiteSpace=wrap;html=1;fixedSize=1;" vertex="1" parent="1">
          <mxGeometry x="335" y="900" width="230" height="60" as="geometry" />
        </mxCell>
        <mxCell id="x4-7woMXGUGNkdYmgw8k-20" style="edgeStyle=orthogonalEdgeStyle;rounded=0;orthogonalLoop=1;jettySize=auto;html=1;entryX=0.5;entryY=0;entryDx=0;entryDy=0;" edge="1" parent="1" source="x4-7woMXGUGNkdYmgw8k-15" target="x4-7woMXGUGNkdYmgw8k-16">
          <mxGeometry relative="1" as="geometry" />
        </mxCell>
        <mxCell id="x4-7woMXGUGNkdYmgw8k-15" value="dien_tich = chieu_dai * chieu_rong" style="rounded=0;whiteSpace=wrap;html=1;" vertex="1" parent="1">
          <mxGeometry x="610" y="1020" width="265" height="60" as="geometry" />
        </mxCell>
        <mxCell id="x4-7woMXGUGNkdYmgw8k-21" style="edgeStyle=orthogonalEdgeStyle;rounded=0;orthogonalLoop=1;jettySize=auto;html=1;exitX=0.5;exitY=1;exitDx=0;exitDy=0;entryX=0.5;entryY=0;entryDx=0;entryDy=0;" edge="1" parent="1" source="x4-7woMXGUGNkdYmgw8k-16" target="x4-7woMXGUGNkdYmgw8k-17">
          <mxGeometry relative="1" as="geometry" />
        </mxCell>
        <mxCell id="x4-7woMXGUGNkdYmgw8k-16" value="OUTPUT dien_tich" style="shape=parallelogram;perimeter=parallelogramPerimeter;whiteSpace=wrap;html=1;fixedSize=1;" vertex="1" parent="1">
          <mxGeometry x="672.5" y="1140" width="140" height="60" as="geometry" />
        </mxCell>
        <mxCell id="x4-7woMXGUGNkdYmgw8k-17" value="END" style="ellipse;whiteSpace=wrap;html=1;" vertex="1" parent="1">
          <mxGeometry x="390" y="1240" width="120" height="80" as="geometry" />
        </mxCell>
        <mxCell id="x4-7woMXGUGNkdYmgw8k-24" style="edgeStyle=orthogonalEdgeStyle;rounded=0;orthogonalLoop=1;jettySize=auto;html=1;entryX=0.5;entryY=0;entryDx=0;entryDy=0;" edge="1" parent="1" source="x4-7woMXGUGNkdYmgw8k-25" target="x4-7woMXGUGNkdYmgw8k-17">
          <mxGeometry relative="1" as="geometry">
            <Array as="points">
              <mxPoint x="180" y="1220" />
              <mxPoint x="450" y="1220" />
            </Array>
          </mxGeometry>
        </mxCell>
        <mxCell id="x4-7woMXGUGNkdYmgw8k-22" value="chu_vi = (chieu_dai + chieu_rong) * 2" style="rounded=0;whiteSpace=wrap;html=1;" vertex="1" parent="1">
          <mxGeometry x="70" y="1020" width="220" height="60" as="geometry" />
        </mxCell>
        <mxCell id="x4-7woMXGUGNkdYmgw8k-26" value="" style="edgeStyle=orthogonalEdgeStyle;rounded=0;orthogonalLoop=1;jettySize=auto;html=1;entryX=0.5;entryY=0;entryDx=0;entryDy=0;exitX=0.5;exitY=1;exitDx=0;exitDy=0;" edge="1" parent="1" source="x4-7woMXGUGNkdYmgw8k-22" target="x4-7woMXGUGNkdYmgw8k-25">
          <mxGeometry relative="1" as="geometry">
            <mxPoint x="330" y="1080" as="sourcePoint" />
            <mxPoint x="450" y="1240" as="targetPoint" />
            <Array as="points">
              <mxPoint x="180" y="1130" />
            </Array>
          </mxGeometry>
        </mxCell>
        <mxCell id="x4-7woMXGUGNkdYmgw8k-25" value="OUTPUT chu_vi" style="shape=parallelogram;perimeter=parallelogramPerimeter;whiteSpace=wrap;html=1;fixedSize=1;" vertex="1" parent="1">
          <mxGeometry x="110" y="1130" width="140" height="60" as="geometry" />
        </mxCell>
      </root>
    </mxGraphModel>
  </diagram>
</mxfile>
